<svg xmlns="http://www.w3.org/2000/svg" viewBox="0 0 100 100"><defs><style>.cls-1{fill:#93ad1a;}.cls-2{fill:#6e8513;}</style></defs><g id="Calque_2" data-name="Calque 2"><g id="Calque_2-2" data-name="Calque 2"><g id="Calque_1-2" data-name="Calque 1-2"><path class="cls-1" d="M62.75,55.25a25.58,25.58,0,0,0-4.15,3.3,23.12,23.12,0,0,0-3.3,4.15h0a22.84,22.84,0,0,0-5.25-.6,23.28,23.28,0,0,0-5.3.6,25.58,25.58,0,0,0-3.3-4.15,23.59,23.59,0,0,0-4.15-3.3A22.83,22.83,0,0,0,37.85,50a23.28,23.28,0,0,0-.6-5.3,25.58,25.58,0,0,0,4.15-3.3,21.49,21.49,0,0,0,3.3-4.15,24.71,24.71,0,0,0,10.6,0,25.58,25.58,0,0,0,3.3,4.15,21.49,21.49,0,0,0,4.15,3.3A23,23,0,0,0,62.2,50a22.53,22.53,0,0,0,.6,5.25Z"/><path class="cls-2" d="M37.05,22.85A20.1,20.1,0,0,1,34,29a23.18,23.18,0,0,1-6.65-16.3V11.5A23.45,23.45,0,0,0,37,22.9Z"/><path class="cls-2" d="M37.7,20.4A23.24,23.24,0,0,1,28.05,6.8,22.56,22.56,0,0,1,30,1.8,20.46,20.46,0,0,1,34.9,4h0A23.18,23.18,0,0,1,37.7,20.4Z"/><path class="cls-2" d="M39.25,24a24.38,24.38,0,0,0,7.1,2.15,22.47,22.47,0,0,1-2.6,8.7,21.78,21.78,0,0,1-8-4.3A24.46,24.46,0,0,0,39.25,24Z"/><path class="cls-2" d="M38.75,6.8c.25.25.55.5.8.8a23.52,23.52,0,0,1,6.9,16.2A22,22,0,0,1,40,21.7a23.23,23.23,0,0,0-1.2-14.85Z"/><path class="cls-2" d="M62.45,20.3a23.24,23.24,0,0,1,3-16.2A23.27,23.27,0,0,1,70.15,2,19.78,19.78,0,0,1,72,6.8,23.3,23.3,0,0,1,62.5,20.3Z"/><path class="cls-2" d="M60.25,21.6a22.18,22.18,0,0,1-6.5,2.2,23.43,23.43,0,0,1,7-16.15c.25-.25.55-.55.85-.8A23.29,23.29,0,0,0,60.25,21.6Z"/><path class="cls-2" d="M64.3,30.55a22.32,22.32,0,0,1-7.95,4.3,21.51,21.51,0,0,1-2.5-8.7A26.08,26.08,0,0,0,61,24a25.07,25.07,0,0,0,3.4,6.6Z"/><path class="cls-2" d="M72.65,12.65A23.23,23.23,0,0,1,66.05,29a22.62,22.62,0,0,1-3-6.15A23.55,23.55,0,0,0,72.6,11.55v1.1Z"/><path class="cls-2" d="M37.7,20.4A23.24,23.24,0,0,1,28.05,6.8,22.56,22.56,0,0,1,30,1.8,20.46,20.46,0,0,1,34.9,4h0A23.18,23.18,0,0,1,37.7,20.4Z"/><path class="cls-2" d="M39.9,21.7A23.23,23.23,0,0,0,38.7,6.85c.25.25.55.5.8.8a23.52,23.52,0,0,1,6.9,16.2,22,22,0,0,1-6.5-2.1Z"/><path class="cls-2" d="M60.25,21.6a22.18,22.18,0,0,1-6.5,2.2,23.43,23.43,0,0,1,7-16.15c.25-.25.55-.55.85-.8A23.29,23.29,0,0,0,60.25,21.6Z"/><path class="cls-2" d="M62.45,20.3a23.24,23.24,0,0,1,3-16.2A23.27,23.27,0,0,1,70.15,2,19.78,19.78,0,0,1,72,6.8,23.3,23.3,0,0,1,62.5,20.3Z"/><path class="cls-2" d="M37.7,20.4A23.24,23.24,0,0,1,28.05,6.8,22.56,22.56,0,0,1,30,1.8,20.46,20.46,0,0,1,34.9,4h0A23.18,23.18,0,0,1,37.7,20.4Z"/><path class="cls-2" d="M39.9,21.7A23.23,23.23,0,0,0,38.7,6.85c.25.25.55.5.8.8a23.52,23.52,0,0,1,6.9,16.2,22,22,0,0,1-6.5-2.1Z"/><path class="cls-2" d="M60.25,21.6a22.18,22.18,0,0,1-6.5,2.2,23.43,23.43,0,0,1,7-16.15c.25-.25.55-.55.85-.8A23.29,23.29,0,0,0,60.25,21.6Z"/><path class="cls-2" d="M71.9,6.8a23.3,23.3,0,0,1-9.45,13.5,23.24,23.24,0,0,1,3-16.2A23.27,23.27,0,0,1,70.15,2,19.78,19.78,0,0,1,72,6.8Z"/><path class="cls-2" d="M4,35H4A25.56,25.56,0,0,1,1.7,29.9,21.49,21.49,0,0,1,7,27.9a23.1,23.1,0,0,1,13.6,9.9A23.17,23.17,0,0,1,4,35.05Z"/><path class="cls-2" d="M21.85,40a21.2,21.2,0,0,1,2,6.55A23.06,23.06,0,0,1,7.6,39.65c-.25-.25-.55-.55-.8-.85A23.52,23.52,0,0,0,21.85,40Z"/><path class="cls-2" d="M11.6,27.2h1.15A23.44,23.44,0,0,1,29.1,33.9,23,23,0,0,1,23,37.1,23.66,23.66,0,0,0,11.6,27.2Z"/><path class="cls-2" d="M34.9,43.75a22.9,22.9,0,0,1-8.7,2.7,24.17,24.17,0,0,0-2.1-7.15,25.51,25.51,0,0,0,6.55-3.6A21.88,21.88,0,0,1,34.9,43.75Z"/><path class="cls-2" d="M42.6,36.7A20,20,0,0,1,40,39.9h0a18.28,18.28,0,0,1-3.25,2.7,24.35,24.35,0,0,0-4.5-8.2c.4-.35.75-.7,1.15-1a12,12,0,0,0,1.1-1.15,23.88,23.88,0,0,0,8.2,4.5Z"/><path class="cls-2" d="M37.05,22.85A20.1,20.1,0,0,1,34,29a23.18,23.18,0,0,1-6.65-16.3V11.5A23.45,23.45,0,0,0,37,22.9Z"/><path class="cls-2" d="M37.7,20.4A23.24,23.24,0,0,1,28.05,6.8,22.56,22.56,0,0,1,30,1.8,20.46,20.46,0,0,1,34.9,4h0A23.18,23.18,0,0,1,37.7,20.4Z"/><path class="cls-2" d="M39.25,24a24.38,24.38,0,0,0,7.1,2.15,22.47,22.47,0,0,1-2.6,8.7,21.78,21.78,0,0,1-8-4.3A24.46,24.46,0,0,0,39.25,24Z"/><path class="cls-2" d="M38.75,6.8c.25.25.55.5.8.8a23.52,23.52,0,0,1,6.9,16.2A22,22,0,0,1,40,21.7a23.23,23.23,0,0,0-1.2-14.85Z"/><path class="cls-2" d="M20.55,37.75A23.17,23.17,0,0,1,4,35H4A25.56,25.56,0,0,1,1.7,29.9,21.49,21.49,0,0,1,7,27.9a23.1,23.1,0,0,1,13.6,9.9Z"/><path class="cls-2" d="M29.1,33.9A23,23,0,0,1,23,37.1a23.66,23.66,0,0,0-11.4-9.9h1.15A23.44,23.44,0,0,1,29.1,33.9Z"/><path class="cls-2" d="M37.05,22.85A20.1,20.1,0,0,1,34,29a23.18,23.18,0,0,1-6.65-16.3V11.5A23.45,23.45,0,0,0,37,22.9Z"/><path class="cls-2" d="M37.7,20.4A23.24,23.24,0,0,1,28.05,6.8,22.56,22.56,0,0,1,30,1.8,20.46,20.46,0,0,1,34.9,4h0A23.18,23.18,0,0,1,37.7,20.4Z"/><path class="cls-2" d="M20.55,37.75A23.17,23.17,0,0,1,4,35H4A25.56,25.56,0,0,1,1.7,29.9,21.49,21.49,0,0,1,7,27.9a23.1,23.1,0,0,1,13.6,9.9Z"/><path class="cls-2" d="M29.1,33.9A23,23,0,0,1,23,37.1a23.66,23.66,0,0,0-11.4-9.9h1.15A23.44,23.44,0,0,1,29.1,33.9Z"/><path class="cls-2" d="M37.05,22.85A20.1,20.1,0,0,1,34,29a23.18,23.18,0,0,1-6.65-16.3V11.5A23.45,23.45,0,0,0,37,22.9Z"/><path class="cls-2" d="M37.7,20.4A23.24,23.24,0,0,1,28.05,6.8,22.56,22.56,0,0,1,30,1.8,20.46,20.46,0,0,1,34.9,4h0A23.18,23.18,0,0,1,37.7,20.4Z"/><path class="cls-2" d="M4,35H4A25.56,25.56,0,0,1,1.7,29.9,21.49,21.49,0,0,1,7,27.9a23.1,23.1,0,0,1,13.6,9.9A23.17,23.17,0,0,1,4,35.05Z"/><path class="cls-2" d="M21.85,40a21.2,21.2,0,0,1,2,6.55A23.06,23.06,0,0,1,7.6,39.65c-.25-.25-.55-.55-.8-.85A23.52,23.52,0,0,0,21.85,40Z"/><path class="cls-2" d="M11.6,27.2h1.15A23.44,23.44,0,0,1,29.1,33.9,23,23,0,0,1,23,37.1,23.66,23.66,0,0,0,11.6,27.2Z"/><path class="cls-2" d="M34.9,43.75a22.9,22.9,0,0,1-8.7,2.7,24.17,24.17,0,0,0-2.1-7.15,25.51,25.51,0,0,0,6.55-3.6A21.88,21.88,0,0,1,34.9,43.75Z"/><path class="cls-2" d="M6.65,71.7a25.15,25.15,0,0,1-5.1-2,24.77,24.77,0,0,1,2.25-5h0a22.87,22.87,0,0,1,16.6-2.65,23.13,23.13,0,0,1-13.75,9.7Z"/><path class="cls-2" d="M29,65.9a23.13,23.13,0,0,1-16.4,6.55H11.4a23.56,23.56,0,0,0,11.45-9.7A23,23,0,0,1,29,66Z"/><path class="cls-2" d="M23.8,53.3a22.91,22.91,0,0,1-2.15,6.55,23.21,23.21,0,0,0-14.95,1c.25-.25.5-.55.8-.8A23.18,23.18,0,0,1,23.85,53.3Z"/><path class="cls-2" d="M26.2,53.45a21.66,21.66,0,0,1,8.65,2.75,22.12,22.12,0,0,1-4.3,8,26.07,26.07,0,0,0-6.5-3.6,25.89,25.89,0,0,0,2.2-7.15Z"/><path class="cls-2" d="M35.75,49.85V50a22,22,0,0,1-.4,4.15,24.88,24.88,0,0,0-9-2.6c0-.55.05-1.15.05-1.7V48.4a23.73,23.73,0,0,0,9-2.65,21.28,21.28,0,0,1,.4,4Z"/><path class="cls-2" d="M4,35H4A25.56,25.56,0,0,1,1.7,29.9,21.49,21.49,0,0,1,7,27.9a23.1,23.1,0,0,1,13.6,9.9A23.17,23.17,0,0,1,4,35.05Z"/><path class="cls-2" d="M23.85,46.5A23.06,23.06,0,0,1,7.6,39.65c-.25-.25-.55-.55-.8-.85A23.52,23.52,0,0,0,21.85,40,21.2,21.2,0,0,1,23.85,46.5Z"/><path class="cls-2" d="M20.4,62.05a23.13,23.13,0,0,1-13.75,9.7,25.15,25.15,0,0,1-5.1-2,24.77,24.77,0,0,1,2.25-5h0A22.87,22.87,0,0,1,20.4,62.1Z"/><path class="cls-2" d="M23.8,53.3a22.91,22.91,0,0,1-2.15,6.55,23.21,23.21,0,0,0-14.95,1c.25-.25.5-.55.8-.8A23.18,23.18,0,0,1,23.85,53.3Z"/><path class="cls-2" d="M4,35H4A25.56,25.56,0,0,1,1.7,29.9,21.49,21.49,0,0,1,7,27.9a23.1,23.1,0,0,1,13.6,9.9A23.17,23.17,0,0,1,4,35.05Z"/><path class="cls-2" d="M23.85,46.5A23.06,23.06,0,0,1,7.6,39.65c-.25-.25-.55-.55-.8-.85A23.52,23.52,0,0,0,21.85,40,21.2,21.2,0,0,1,23.85,46.5Z"/><path class="cls-2" d="M20.4,62.05a23.13,23.13,0,0,1-13.75,9.7,25.15,25.15,0,0,1-5.1-2,24.77,24.77,0,0,1,2.25-5h0A22.87,22.87,0,0,1,20.4,62.1Z"/><path class="cls-2" d="M23.8,53.3a22.91,22.91,0,0,1-2.15,6.55,23.21,23.21,0,0,0-14.95,1c.25-.25.5-.55.8-.8A23.18,23.18,0,0,1,23.85,53.3Z"/><path class="cls-2" d="M6.65,71.7a25.15,25.15,0,0,1-5.1-2,24.77,24.77,0,0,1,2.25-5h0a22.87,22.87,0,0,1,16.6-2.65,23.13,23.13,0,0,1-13.75,9.7Z"/><path class="cls-2" d="M29,65.9a23.13,23.13,0,0,1-16.4,6.55H11.4a23.56,23.56,0,0,0,11.45-9.7A23,23,0,0,1,29,66Z"/><path class="cls-2" d="M23.8,53.3a22.91,22.91,0,0,1-2.15,6.55,23.21,23.21,0,0,0-14.95,1c.25-.25.5-.55.8-.8A23.18,23.18,0,0,1,23.85,53.3Z"/><path class="cls-2" d="M34.85,56.15a22.12,22.12,0,0,1-4.3,8,26.07,26.07,0,0,0-6.5-3.6,25.89,25.89,0,0,0,2.2-7.15,21.66,21.66,0,0,1,8.65,2.75Z"/><path class="cls-2" d="M33.8,70.9a21.42,21.42,0,0,1,3.05,6.15,23.34,23.34,0,0,0-9.8,11.25V87.2A23.15,23.15,0,0,1,33.8,71Z"/><path class="cls-2" d="M42.55,63.3a25.13,25.13,0,0,0-8.15,4.55c-.4-.45-.8-.9-1.2-1.3a9,9,0,0,0-1-1,24.1,24.1,0,0,0,4.5-8.25A22.27,22.27,0,0,1,39.8,60l.1.1a20,20,0,0,1,2.6,3.25Z"/><path class="cls-2" d="M46.15,73.8a24.11,24.11,0,0,0-7.15,2,24.21,24.21,0,0,0-3.45-6.55,21.78,21.78,0,0,1,8.05-4.2A22.65,22.65,0,0,1,46.15,73.8Z"/><path class="cls-2" d="M37.5,79.5a23.21,23.21,0,0,1-2.85,16.4h0a23.94,23.94,0,0,1-4.95,2.15A22.29,22.29,0,0,1,27.8,93,23.11,23.11,0,0,1,37.55,79.5Z"/><path class="cls-2" d="M46.25,76.2a23.33,23.33,0,0,1-7,16.15c-.25.25-.55.55-.85.8a23.1,23.1,0,0,0,1.3-14.9A21.79,21.79,0,0,1,46.25,76.2Z"/><path class="cls-2" d="M6.65,71.7a25.15,25.15,0,0,1-5.1-2,24.77,24.77,0,0,1,2.25-5h0a22.87,22.87,0,0,1,16.6-2.65,23.13,23.13,0,0,1-13.75,9.7Z"/><path class="cls-2" d="M29,65.9a23.13,23.13,0,0,1-16.4,6.55H11.4a23.56,23.56,0,0,0,11.45-9.7A23,23,0,0,1,29,66Z"/><path class="cls-2" d="M36.85,77a23.34,23.34,0,0,0-9.8,11.25v-1.1A23.15,23.15,0,0,1,33.8,70.9a21.42,21.42,0,0,1,3.05,6.15Z"/><path class="cls-2" d="M37.5,79.5a23.21,23.21,0,0,1-2.85,16.4h0a23.94,23.94,0,0,1-4.95,2.15A22.29,22.29,0,0,1,27.8,93,23.11,23.11,0,0,1,37.55,79.5Z"/><path class="cls-2" d="M6.65,71.7a25.15,25.15,0,0,1-5.1-2,24.77,24.77,0,0,1,2.25-5h0a22.87,22.87,0,0,1,16.6-2.65,23.13,23.13,0,0,1-13.75,9.7Z"/><path class="cls-2" d="M29,65.9a23.13,23.13,0,0,1-16.4,6.55H11.4a23.56,23.56,0,0,0,11.45-9.7A23,23,0,0,1,29,66Z"/><path class="cls-2" d="M36.85,77a23.34,23.34,0,0,0-9.8,11.25v-1.1A23.15,23.15,0,0,1,33.8,70.9a21.42,21.42,0,0,1,3.05,6.15Z"/><path class="cls-2" d="M34.6,95.85h0a23.94,23.94,0,0,1-5,2.15,22.29,22.29,0,0,1-1.9-5.1A23.11,23.11,0,0,1,37.5,79.45a23.21,23.21,0,0,1-2.85,16.4Z"/><path class="cls-2" d="M37.5,79.5a23.21,23.21,0,0,1-2.85,16.4h0a23.94,23.94,0,0,1-4.95,2.15A22.29,22.29,0,0,1,27.8,93,23.11,23.11,0,0,1,37.55,79.5Z"/><path class="cls-2" d="M39.7,78.2a21.79,21.79,0,0,1,6.55-2,23.33,23.33,0,0,1-7,16.15c-.25.25-.55.55-.85.8A23.1,23.1,0,0,0,39.7,78.2Z"/><path class="cls-2" d="M60.85,93.3c-.25-.25-.55-.5-.8-.8A23.59,23.59,0,0,1,53.3,76.2a23.66,23.66,0,0,1,6.5,2.15,23.37,23.37,0,0,0,1,14.9Z"/><path class="cls-2" d="M71.55,93.4a24.15,24.15,0,0,1-2,5,25.33,25.33,0,0,1-4.9-2.2h0a23.15,23.15,0,0,1-2.65-16.5A23.1,23.1,0,0,1,71.6,93.4Z"/><path class="cls-2" d="M33.8,70.9a21.42,21.42,0,0,1,3.05,6.15,23.34,23.34,0,0,0-9.8,11.25V87.2A23.15,23.15,0,0,1,33.8,71Z"/><path class="cls-2" d="M43.6,65.1a22.65,22.65,0,0,1,2.55,8.7,24.11,24.11,0,0,0-7.15,2,24.21,24.21,0,0,0-3.45-6.55A21.78,21.78,0,0,1,43.6,65.1Z"/><path class="cls-2" d="M54.15,64.7a23.58,23.58,0,0,0-2.55,9c-.6,0-1.2-.1-1.8-.1H48.45a23.73,23.73,0,0,0-2.65-9,19.86,19.86,0,0,1,3.9-.35H50A18.52,18.52,0,0,1,54.15,64.7Z"/><path class="cls-2" d="M64.1,69.55a26.07,26.07,0,0,0-3.6,6.5,24.46,24.46,0,0,0-7.1-2.2,22.4,22.4,0,0,1,2.7-8.65A22.29,22.29,0,0,1,64.1,69.55Z"/><path class="cls-2" d="M72.35,87.55V88.7a23.54,23.54,0,0,0-9.6-11.45,21.46,21.46,0,0,1,3.15-6.1,23.3,23.3,0,0,1,6.5,16.4Z"/><path class="cls-2" d="M37.5,79.5a23.21,23.21,0,0,1-2.85,16.4h0a23.94,23.94,0,0,1-4.95,2.15A22.29,22.29,0,0,1,27.8,93,23.11,23.11,0,0,1,37.55,79.5Z"/><path class="cls-2" d="M39.7,78.2a21.79,21.79,0,0,1,6.55-2,23.33,23.33,0,0,1-7,16.15c-.25.25-.55.55-.85.8A23.1,23.1,0,0,0,39.7,78.2Z"/><path class="cls-2" d="M60.85,93.3c-.25-.25-.55-.5-.8-.8A23.59,23.59,0,0,1,53.3,76.2a23.66,23.66,0,0,1,6.5,2.15,23.37,23.37,0,0,0,1,14.9Z"/><path class="cls-2" d="M71.55,93.4a24.15,24.15,0,0,1-2,5,25.33,25.33,0,0,1-4.9-2.2h0a23.15,23.15,0,0,1-2.65-16.5A23.1,23.1,0,0,1,71.6,93.4Z"/><path class="cls-2" d="M34.6,95.85h0a23.94,23.94,0,0,1-5,2.15,22.29,22.29,0,0,1-1.9-5.1A23.11,23.11,0,0,1,37.5,79.45a23.21,23.21,0,0,1-2.85,16.4Z"/><path class="cls-2" d="M46.25,76.2a23.33,23.33,0,0,1-7,16.15c-.25.25-.55.55-.85.8a23.1,23.1,0,0,0,1.3-14.9A21.79,21.79,0,0,1,46.25,76.2Z"/><path class="cls-2" d="M60.85,93.3c-.25-.25-.55-.5-.8-.8A23.59,23.59,0,0,1,53.3,76.2a23.66,23.66,0,0,1,6.5,2.15,23.37,23.37,0,0,0,1,14.9Z"/><path class="cls-2" d="M71.55,93.4a24.15,24.15,0,0,1-2,5,25.33,25.33,0,0,1-4.9-2.2h0a23.15,23.15,0,0,1-2.65-16.5A23.1,23.1,0,0,1,71.6,93.4Z"/><path class="cls-2" d="M60.85,93.3c-.25-.25-.55-.5-.8-.8A23.59,23.59,0,0,1,53.3,76.2a23.66,23.66,0,0,1,6.5,2.15,23.37,23.37,0,0,0,1,14.9Z"/><path class="cls-2" d="M71.55,93.4a24.15,24.15,0,0,1-2,5,25.33,25.33,0,0,1-4.9-2.2h0a23.15,23.15,0,0,1-2.65-16.5A23.1,23.1,0,0,1,71.6,93.4Z"/><path class="cls-2" d="M56.15,65.2a22.29,22.29,0,0,1,8,4.35,26.07,26.07,0,0,0-3.6,6.5,24.46,24.46,0,0,0-7.1-2.2A22.4,22.4,0,0,1,56.15,65.2Z"/><path class="cls-2" d="M67.85,65.6c-.45.4-.9.8-1.3,1.2a5.62,5.62,0,0,0-.9,1,24.1,24.1,0,0,0-8.25-4.5A21.91,21.91,0,0,1,60,60.2l.1-.1a22.45,22.45,0,0,1,3.25-2.6,24.12,24.12,0,0,0,4.5,8.15Z"/><path class="cls-2" d="M75.85,61a24,24,0,0,0-6.6,3.5,22.54,22.54,0,0,1-4.2-8.05,22.65,22.65,0,0,1,8.7-2.55A24.3,24.3,0,0,0,75.85,61Z"/><path class="cls-2" d="M93.1,61.55a23.65,23.65,0,0,0-14.85-1.3,21.94,21.94,0,0,1-2-6.5,23.33,23.33,0,0,1,16.15,7C92.6,61,92.85,61.3,93.1,61.55Z"/><path class="cls-2" d="M72.35,87.55V88.7a23.54,23.54,0,0,0-9.6-11.45,21.46,21.46,0,0,1,3.15-6.1,23.3,23.3,0,0,1,6.5,16.4Z"/><path class="cls-2" d="M88.3,73H87.2A23.18,23.18,0,0,1,71,66.2a22.5,22.5,0,0,1,6.1-3.05A23.34,23.34,0,0,0,88.3,73Z"/><path class="cls-2" d="M98.05,70.4A24.89,24.89,0,0,1,93,72.3a23.23,23.23,0,0,1-13.5-9.75,22.93,22.93,0,0,1,16.4,2.9,22.83,22.83,0,0,1,2.15,5Z"/><path class="cls-2" d="M71.55,93.4a24.15,24.15,0,0,1-2,5,25.33,25.33,0,0,1-4.9-2.2h0a23.15,23.15,0,0,1-2.65-16.5A23.1,23.1,0,0,1,71.6,93.4Z"/><path class="cls-2" d="M72.35,87.55V88.7a23.54,23.54,0,0,0-9.6-11.45,21.46,21.46,0,0,1,3.15-6.1,23.3,23.3,0,0,1,6.5,16.4Z"/><path class="cls-2" d="M88.3,73H87.2A23.18,23.18,0,0,1,71,66.2a22.5,22.5,0,0,1,6.1-3.05A23.34,23.34,0,0,0,88.3,73Z"/><path class="cls-2" d="M98.05,70.4A24.89,24.89,0,0,1,93,72.3a23.23,23.23,0,0,1-13.5-9.75,22.93,22.93,0,0,1,16.4,2.9,22.83,22.83,0,0,1,2.15,5Z"/><path class="cls-2" d="M71.55,93.4a24.15,24.15,0,0,1-2,5,25.33,25.33,0,0,1-4.9-2.2h0a23.15,23.15,0,0,1-2.65-16.5A23.1,23.1,0,0,1,71.6,93.4Z"/><path class="cls-2" d="M72.35,87.55V88.7a23.54,23.54,0,0,0-9.6-11.45,21.46,21.46,0,0,1,3.15-6.1,23.3,23.3,0,0,1,6.5,16.4Z"/><path class="cls-2" d="M88.3,73H87.2A23.18,23.18,0,0,1,71,66.2a22.5,22.5,0,0,1,6.1-3.05A23.34,23.34,0,0,0,88.3,73Z"/><path class="cls-2" d="M98.05,70.4A24.89,24.89,0,0,1,93,72.3a23.23,23.23,0,0,1-13.5-9.75,22.93,22.93,0,0,1,16.4,2.9,22.83,22.83,0,0,1,2.15,5Z"/><path class="cls-2" d="M77.25,37.3a21.46,21.46,0,0,1-6.1-3.15,23.3,23.3,0,0,1,16.4-6.5H88.7a23.11,23.11,0,0,0-11.45,9.6Z"/><path class="cls-2" d="M98.4,30.4a24.38,24.38,0,0,1-2.25,5A23,23,0,0,1,79.7,38a22.81,22.81,0,0,1,13.7-9.5,21.64,21.64,0,0,1,5,1.95Z"/><path class="cls-2" d="M73.6,51.55a24.24,24.24,0,0,0-9,2.65,19.86,19.86,0,0,1-.35-3.9V50a18.85,18.85,0,0,1,.45-4.15,23.58,23.58,0,0,0,9,2.55c-.05.6-.1,1.2-.1,1.8v1.35Z"/><path class="cls-2" d="M75.85,61a24,24,0,0,0-6.6,3.5,22.54,22.54,0,0,1-4.2-8.05,22.65,22.65,0,0,1,8.7-2.55A24.3,24.3,0,0,0,75.85,61Z"/><path class="cls-2" d="M73.85,46.55a22.13,22.13,0,0,1-8.65-2.7,21.68,21.68,0,0,1,4.35-8,26.07,26.07,0,0,0,6.5,3.6,25.55,25.55,0,0,0-2.2,7.1Z"/><path class="cls-2" d="M92.35,60.75c.25.25.5.55.75.8a23.65,23.65,0,0,0-14.85-1.3,21.94,21.94,0,0,1-2-6.5A23.33,23.33,0,0,1,92.35,60.75Z"/><path class="cls-2" d="M93.25,39.15c-.25.25-.5.55-.75.8A23.59,23.59,0,0,1,76.2,46.7a22.18,22.18,0,0,1,2.2-6.5A22.92,22.92,0,0,0,93.25,39.15Z"/><path class="cls-2" d="M88.3,73H87.2A23.18,23.18,0,0,1,71,66.2a22.5,22.5,0,0,1,6.1-3.05A23.34,23.34,0,0,0,88.3,73Z"/><path class="cls-2" d="M98.05,70.4A24.89,24.89,0,0,1,93,72.3a23.23,23.23,0,0,1-13.5-9.75,22.93,22.93,0,0,1,16.4,2.9,22.83,22.83,0,0,1,2.15,5Z"/><path class="cls-2" d="M98.4,30.4a24.38,24.38,0,0,1-2.25,5A23,23,0,0,1,79.7,38a22.81,22.81,0,0,1,13.7-9.5,21.64,21.64,0,0,1,5,1.95Z"/><path class="cls-2" d="M92.35,60.75c.25.25.5.55.75.8a23.65,23.65,0,0,0-14.85-1.3,21.94,21.94,0,0,1-2-6.5A23.33,23.33,0,0,1,92.35,60.75Z"/><path class="cls-2" d="M93.25,39.15c-.25.25-.5.55-.75.8A23.59,23.59,0,0,1,76.2,46.7a22.18,22.18,0,0,1,2.2-6.5A22.92,22.92,0,0,0,93.25,39.15Z"/><path class="cls-2" d="M98.05,70.4A24.89,24.89,0,0,1,93,72.3a23.23,23.23,0,0,1-13.5-9.75,22.93,22.93,0,0,1,16.4,2.9,22.83,22.83,0,0,1,2.15,5Z"/><path class="cls-2" d="M93.25,39.15c-.25.25-.5.55-.75.8A23.59,23.59,0,0,1,76.2,46.7a22.18,22.18,0,0,1,2.2-6.5A22.92,22.92,0,0,0,93.25,39.15Z"/><path class="cls-2" d="M98.4,30.4a24.38,24.38,0,0,1-2.25,5A23,23,0,0,1,79.7,38a22.81,22.81,0,0,1,13.7-9.5,21.64,21.64,0,0,1,5,1.95Z"/><path class="cls-2" d="M93.1,61.55a23.65,23.65,0,0,0-14.85-1.3,21.94,21.94,0,0,1-2-6.5,23.33,23.33,0,0,1,16.15,7C92.6,61,92.85,61.3,93.1,61.55Z"/><path class="cls-2" d="M98.05,70.4A24.89,24.89,0,0,1,93,72.3a23.23,23.23,0,0,1-13.5-9.75,22.93,22.93,0,0,1,16.4,2.9,22.83,22.83,0,0,1,2.15,5Z"/><path class="cls-2" d="M62.45,20.3a23.24,23.24,0,0,1,3-16.2A23.27,23.27,0,0,1,70.15,2,19.78,19.78,0,0,1,72,6.8,23.3,23.3,0,0,1,62.5,20.3Z"/><path class="cls-2" d="M60.25,21.6a22.18,22.18,0,0,1-6.5,2.2,23.43,23.43,0,0,1,7-16.15c.25-.25.55-.55.85-.8A23.29,23.29,0,0,0,60.25,21.6Z"/><path class="cls-2" d="M66.05,29a22.62,22.62,0,0,1-3-6.15A23.55,23.55,0,0,0,72.6,11.55v1.1A23.23,23.23,0,0,1,66,29Z"/><path class="cls-2" d="M64.3,30.55a22.32,22.32,0,0,1-7.95,4.3,21.51,21.51,0,0,1-2.5-8.7A26.08,26.08,0,0,0,61,24a25.07,25.07,0,0,0,3.4,6.6Z"/><path class="cls-2" d="M67.75,34.45a24.35,24.35,0,0,0-4.5,8.2A22.27,22.27,0,0,1,60.15,40l-.1-.1a20,20,0,0,1-2.6-3.25,25,25,0,0,0,8.15-4.5c.4.45.8.9,1.2,1.3a9,9,0,0,0,1,.95Z"/><path class="cls-2" d="M76.05,39.45a25.55,25.55,0,0,0-2.2,7.1,22.13,22.13,0,0,1-8.65-2.7,21.68,21.68,0,0,1,4.35-8,26.07,26.07,0,0,0,6.5,3.6Z"/><path class="cls-2" d="M93.25,39.15c-.25.25-.5.55-.75.8A23.59,23.59,0,0,1,76.2,46.7a22.18,22.18,0,0,1,2.2-6.5A22.92,22.92,0,0,0,93.25,39.15Z"/><path class="cls-2" d="M77.25,37.3a21.46,21.46,0,0,1-6.1-3.15,23.3,23.3,0,0,1,16.4-6.5H88.7a23.11,23.11,0,0,0-11.45,9.6Z"/><path class="cls-2" d="M98.4,30.4a24.38,24.38,0,0,1-2.25,5A23,23,0,0,1,79.7,38a22.81,22.81,0,0,1,13.7-9.5,21.64,21.64,0,0,1,5,1.95Z"/><path class="cls-2" d="M62.45,20.3a23.24,23.24,0,0,1,3-16.2A23.27,23.27,0,0,1,70.15,2,19.78,19.78,0,0,1,72,6.8,23.3,23.3,0,0,1,62.5,20.3Z"/><path class="cls-2" d="M72.65,12.65A23.23,23.23,0,0,1,66.05,29a22.62,22.62,0,0,1-3-6.15A23.55,23.55,0,0,0,72.6,11.55v1.1Z"/><path class="cls-2" d="M77.25,37.3a21.46,21.46,0,0,1-6.1-3.15,23.3,23.3,0,0,1,16.4-6.5H88.7a23.11,23.11,0,0,0-11.45,9.6Z"/><path class="cls-2" d="M98.4,30.4a24.38,24.38,0,0,1-2.25,5A23,23,0,0,1,79.7,38a22.81,22.81,0,0,1,13.7-9.5,21.64,21.64,0,0,1,5,1.95Z"/><path class="cls-2" d="M71.9,6.8a23.3,23.3,0,0,1-9.45,13.5,23.24,23.24,0,0,1,3-16.2A23.27,23.27,0,0,1,70.15,2,19.78,19.78,0,0,1,72,6.8Z"/><path class="cls-2" d="M72.65,12.65A23.23,23.23,0,0,1,66.05,29a22.62,22.62,0,0,1-3-6.15A23.55,23.55,0,0,0,72.6,11.55v1.1Z"/><path class="cls-2" d="M77.25,37.3a21.46,21.46,0,0,1-6.1-3.15,23.3,23.3,0,0,1,16.4-6.5H88.7a23.11,23.11,0,0,0-11.45,9.6Z"/><path class="cls-2" d="M98.4,30.4a24.38,24.38,0,0,1-2.25,5A23,23,0,0,1,79.7,38a22.81,22.81,0,0,1,13.7-9.5,21.64,21.64,0,0,1,5,1.95Z"/><path class="cls-2" d="M4,35H4A25.56,25.56,0,0,1,1.7,29.9,21.49,21.49,0,0,1,7,27.9a23.1,23.1,0,0,1,13.6,9.9A23.17,23.17,0,0,1,4,35.05Z"/><path class="cls-2" d="M21.85,40a21.2,21.2,0,0,1,2,6.55A23.06,23.06,0,0,1,7.6,39.65c-.25-.25-.55-.55-.8-.85A23.52,23.52,0,0,0,21.85,40Z"/><path class="cls-2" d="M11.6,27.2h1.15A23.44,23.44,0,0,1,29.1,33.9,23,23,0,0,1,23,37.1,23.66,23.66,0,0,0,11.6,27.2Z"/><path class="cls-2" d="M34.9,43.75a22.9,22.9,0,0,1-8.7,2.7,24.17,24.17,0,0,0-2.1-7.15,25.51,25.51,0,0,0,6.55-3.6A21.88,21.88,0,0,1,34.9,43.75Z"/><path class="cls-2" d="M42.6,36.7A20,20,0,0,1,40,39.9h0a18.28,18.28,0,0,1-3.25,2.7,24.35,24.35,0,0,0-4.5-8.2c.4-.35.75-.7,1.15-1a12,12,0,0,0,1.1-1.15,23.88,23.88,0,0,0,8.2,4.5Z"/><path class="cls-2" d="M37.05,22.85A20.1,20.1,0,0,1,34,29a23.18,23.18,0,0,1-6.65-16.3V11.5A23.45,23.45,0,0,0,37,22.9Z"/><path class="cls-2" d="M37.7,20.4A23.24,23.24,0,0,1,28.05,6.8,22.56,22.56,0,0,1,30,1.8,20.46,20.46,0,0,1,34.9,4h0A23.18,23.18,0,0,1,37.7,20.4Z"/><path class="cls-2" d="M39.25,24a24.38,24.38,0,0,0,7.1,2.15,22.47,22.47,0,0,1-2.6,8.7,21.78,21.78,0,0,1-8-4.3A24.46,24.46,0,0,0,39.25,24Z"/><path class="cls-2" d="M38.75,6.8c.25.25.55.5.8.8a23.52,23.52,0,0,1,6.9,16.2A22,22,0,0,1,40,21.7a23.23,23.23,0,0,0-1.2-14.85Z"/><path class="cls-2" d="M4,35H4A25.56,25.56,0,0,1,1.7,29.9,21.49,21.49,0,0,1,7,27.9a23.1,23.1,0,0,1,13.6,9.9A23.17,23.17,0,0,1,4,35.05Z"/><path class="cls-2" d="M21.85,40a21.2,21.2,0,0,1,2,6.55A23.06,23.06,0,0,1,7.6,39.65c-.25-.25-.55-.55-.8-.85A23.52,23.52,0,0,0,21.85,40Z"/><path class="cls-2" d="M11.6,27.2h1.15A23.44,23.44,0,0,1,29.1,33.9,23,23,0,0,1,23,37.1,23.66,23.66,0,0,0,11.6,27.2Z"/><path class="cls-2" d="M34.9,43.75a22.9,22.9,0,0,1-8.7,2.7,24.17,24.17,0,0,0-2.1-7.15,25.51,25.51,0,0,0,6.55-3.6A21.88,21.88,0,0,1,34.9,43.75Z"/><path class="cls-2" d="M6.65,71.7a25.15,25.15,0,0,1-5.1-2,24.77,24.77,0,0,1,2.25-5h0a22.87,22.87,0,0,1,16.6-2.65,23.13,23.13,0,0,1-13.75,9.7Z"/><path class="cls-2" d="M29,65.9a23.13,23.13,0,0,1-16.4,6.55H11.4a23.56,23.56,0,0,0,11.45-9.7A23,23,0,0,1,29,66Z"/><path class="cls-2" d="M23.8,53.3a22.91,22.91,0,0,1-2.15,6.55,23.21,23.21,0,0,0-14.95,1c.25-.25.5-.55.8-.8A23.18,23.18,0,0,1,23.85,53.3Z"/><path class="cls-2" d="M26.2,53.45a21.66,21.66,0,0,1,8.65,2.75,22.12,22.12,0,0,1-4.3,8,26.07,26.07,0,0,0-6.5-3.6,25.89,25.89,0,0,0,2.2-7.15Z"/><path class="cls-2" d="M35.75,49.85V50a22,22,0,0,1-.4,4.15,24.88,24.88,0,0,0-9-2.6c0-.55.05-1.15.05-1.7V48.4a23.73,23.73,0,0,0,9-2.65,21.28,21.28,0,0,1,.4,4Z"/><path class="cls-2" d="M4,35H4A25.56,25.56,0,0,1,1.7,29.9,21.49,21.49,0,0,1,7,27.9a23.1,23.1,0,0,1,13.6,9.9A23.17,23.17,0,0,1,4,35.05Z"/><path class="cls-2" d="M21.85,40a21.2,21.2,0,0,1,2,6.55A23.06,23.06,0,0,1,7.6,39.65c-.25-.25-.55-.55-.8-.85A23.52,23.52,0,0,0,21.85,40Z"/><path class="cls-2" d="M11.6,27.2h1.15A23.44,23.44,0,0,1,29.1,33.9,23,23,0,0,1,23,37.1,23.66,23.66,0,0,0,11.6,27.2Z"/><path class="cls-2" d="M34.9,43.75a22.9,22.9,0,0,1-8.7,2.7,24.17,24.17,0,0,0-2.1-7.15,25.51,25.51,0,0,0,6.55-3.6A21.88,21.88,0,0,1,34.9,43.75Z"/><path class="cls-2" d="M42.6,36.7A20,20,0,0,1,40,39.9h0a18.28,18.28,0,0,1-3.25,2.7,24.35,24.35,0,0,0-4.5-8.2c.4-.35.75-.7,1.15-1a12,12,0,0,0,1.1-1.15,23.88,23.88,0,0,0,8.2,4.5Z"/><path class="cls-2" d="M37.05,22.85A20.1,20.1,0,0,1,34,29a23.18,23.18,0,0,1-6.65-16.3V11.5A23.45,23.45,0,0,0,37,22.9Z"/><path class="cls-2" d="M37.7,20.4A23.24,23.24,0,0,1,28.05,6.8,22.56,22.56,0,0,1,30,1.8,20.46,20.46,0,0,1,34.9,4h0A23.18,23.18,0,0,1,37.7,20.4Z"/><path class="cls-2" d="M39.25,24a24.38,24.38,0,0,0,7.1,2.15,22.47,22.47,0,0,1-2.6,8.7,21.78,21.78,0,0,1-8-4.3A24.46,24.46,0,0,0,39.25,24Z"/><path class="cls-2" d="M38.75,6.8c.25.25.55.5.8.8a23.52,23.52,0,0,1,6.9,16.2A22,22,0,0,1,40,21.7a23.23,23.23,0,0,0-1.2-14.85Z"/><path class="cls-2" d="M54.15,35.35a21.73,21.73,0,0,1-8.3,0,24.59,24.59,0,0,0,2.6-9H51.6a24.59,24.59,0,0,0,2.6,9Z"/><path class="cls-2" d="M39.25,24a23.73,23.73,0,0,1-3.5,6.55,22.54,22.54,0,0,0,8,4.3,21.42,21.42,0,0,0,2.6-8.7A23.92,23.92,0,0,1,39.25,24Zm7.2-.2a23.43,23.43,0,0,0-6.9-16.2c-.25-.25-.55-.5-.8-.8A23.28,23.28,0,0,1,40,21.65a20.65,20.65,0,0,0,6.5,2.1ZM27.35,11.45V12.6A23.18,23.18,0,0,0,34,28.9a22.66,22.66,0,0,0,3.1-6.1,23.23,23.23,0,0,1-9.7-11.4ZM34.9,4h0A25.33,25.33,0,0,0,30,1.8a21.64,21.64,0,0,0-1.95,5A23.09,23.09,0,0,0,37.7,20.4,23.18,23.18,0,0,0,34.9,4ZM61.55,6.85a6.44,6.44,0,0,0-.85.8,23.12,23.12,0,0,0-7,16.15,22.18,22.18,0,0,0,6.5-2.2A23.32,23.32,0,0,1,61.55,6.85Zm11,4.7A23.28,23.28,0,0,1,63,22.8,20.66,20.66,0,0,0,66,29a23.27,23.27,0,0,0,6.6-16.3v-1.1ZM60.85,24a25.55,25.55,0,0,1-7.1,2.2,22.33,22.33,0,0,0,2.5,8.7,22.32,22.32,0,0,0,8-4.3A25.07,25.07,0,0,1,60.8,24ZM70.1,2a21.83,21.83,0,0,0-4.7,2.1,23.24,23.24,0,0,0-3,16.2A22.93,22.93,0,0,0,71.85,6.8,22.09,22.09,0,0,0,70.05,2Z"/><path class="cls-2" d="M62.45,20.3a23.24,23.24,0,0,1,3-16.2A23.27,23.27,0,0,1,70.15,2,19.78,19.78,0,0,1,72,6.8,23.3,23.3,0,0,1,62.5,20.3Z"/><path class="cls-2" d="M60.25,21.6a22.18,22.18,0,0,1-6.5,2.2,23.43,23.43,0,0,1,7-16.15c.25-.25.55-.55.85-.8A23.29,23.29,0,0,0,60.25,21.6Z"/><path class="cls-2" d="M66.05,29a22.62,22.62,0,0,1-3-6.15A23.55,23.55,0,0,0,72.6,11.55v1.1A23.23,23.23,0,0,1,66,29Z"/><path class="cls-2" d="M56.35,34.85a21.51,21.51,0,0,1-2.5-8.7A26.08,26.08,0,0,0,61,24a25.07,25.07,0,0,0,3.4,6.6,22.32,22.32,0,0,1-7.95,4.3Z"/><path class="cls-2" d="M67.75,34.45a24.35,24.35,0,0,0-4.5,8.2A22.27,22.27,0,0,1,60.15,40l-.1-.1a20,20,0,0,1-2.6-3.25,25,25,0,0,0,8.15-4.5c.4.45.8.9,1.2,1.3a9,9,0,0,0,1,.95Z"/><path class="cls-2" d="M76.05,39.45a25.55,25.55,0,0,0-2.2,7.1,22.13,22.13,0,0,1-8.65-2.7,21.68,21.68,0,0,1,4.35-8,26.07,26.07,0,0,0,6.5,3.6Z"/><path class="cls-2" d="M93.25,39.15c-.25.25-.5.55-.75.8A23.59,23.59,0,0,1,76.2,46.7a22.18,22.18,0,0,1,2.2-6.5A22.92,22.92,0,0,0,93.25,39.15Z"/><path class="cls-2" d="M77.25,37.3a21.46,21.46,0,0,1-6.1-3.15,23.3,23.3,0,0,1,16.4-6.5H88.7a23.11,23.11,0,0,0-11.45,9.6Z"/><path class="cls-2" d="M98.4,30.4a24.38,24.38,0,0,1-2.25,5A23,23,0,0,1,79.7,38a22.81,22.81,0,0,1,13.7-9.5,21.64,21.64,0,0,1,5,1.95Z"/><path class="cls-2" d="M77.25,37.3a21.46,21.46,0,0,1-6.1-3.15,23.3,23.3,0,0,1,16.4-6.5H88.7a23.11,23.11,0,0,0-11.45,9.6Z"/><path class="cls-2" d="M98.4,30.4a24.38,24.38,0,0,1-2.25,5A23,23,0,0,1,79.7,38a22.81,22.81,0,0,1,13.7-9.5,21.64,21.64,0,0,1,5,1.95Z"/><path class="cls-2" d="M73.6,51.55a24.24,24.24,0,0,0-9,2.65,19.86,19.86,0,0,1-.35-3.9V50a18.85,18.85,0,0,1,.45-4.15,23.58,23.58,0,0,0,9,2.55c-.05.6-.1,1.2-.1,1.8v1.35Z"/><path class="cls-2" d="M75.85,61a24,24,0,0,0-6.6,3.5,22.54,22.54,0,0,1-4.2-8.05,22.65,22.65,0,0,1,8.7-2.55A24.3,24.3,0,0,0,75.85,61Z"/><path class="cls-2" d="M73.85,46.55a22.13,22.13,0,0,1-8.65-2.7,21.68,21.68,0,0,1,4.35-8,26.07,26.07,0,0,0,6.5,3.6,25.55,25.55,0,0,0-2.2,7.1Z"/><path class="cls-2" d="M92.35,60.75c.25.25.5.55.75.8a23.65,23.65,0,0,0-14.85-1.3,21.94,21.94,0,0,1-2-6.5A23.33,23.33,0,0,1,92.35,60.75Z"/><path class="cls-2" d="M93.25,39.15c-.25.25-.5.55-.75.8A23.59,23.59,0,0,1,76.2,46.7a22.18,22.18,0,0,1,2.2-6.5A22.92,22.92,0,0,0,93.25,39.15Z"/><path class="cls-2" d="M88.3,73H87.2A23.18,23.18,0,0,1,71,66.2a22.5,22.5,0,0,1,6.1-3.05A23.34,23.34,0,0,0,88.3,73Z"/><path class="cls-2" d="M98.05,70.4A24.89,24.89,0,0,1,93,72.3a23.23,23.23,0,0,1-13.5-9.75,22.93,22.93,0,0,1,16.4,2.9,22.83,22.83,0,0,1,2.15,5Z"/><path class="cls-2" d="M60.85,93.3c-.25-.25-.55-.5-.8-.8A23.59,23.59,0,0,1,53.3,76.2a23.66,23.66,0,0,1,6.5,2.15,23.37,23.37,0,0,0,1,14.9Z"/><path class="cls-2" d="M71.55,93.4a24.15,24.15,0,0,1-2,5,25.33,25.33,0,0,1-4.9-2.2h0a23.15,23.15,0,0,1-2.65-16.5A23.1,23.1,0,0,1,71.6,93.4Z"/><path class="cls-2" d="M56.15,65.2a22.29,22.29,0,0,1,8,4.35,26.07,26.07,0,0,0-3.6,6.5,24.46,24.46,0,0,0-7.1-2.2A22.4,22.4,0,0,1,56.15,65.2Z"/><path class="cls-2" d="M67.85,65.6c-.45.4-.9.8-1.3,1.2a5.62,5.62,0,0,0-.9,1,24.1,24.1,0,0,0-8.25-4.5A21.91,21.91,0,0,1,60,60.2l.1-.1a22.45,22.45,0,0,1,3.25-2.6,24.12,24.12,0,0,0,4.5,8.15Z"/><path class="cls-2" d="M75.85,61a24,24,0,0,0-6.6,3.5,22.54,22.54,0,0,1-4.2-8.05,22.65,22.65,0,0,1,8.7-2.55A24.3,24.3,0,0,0,75.85,61Z"/><path class="cls-2" d="M93.1,61.55a23.65,23.65,0,0,0-14.85-1.3,21.94,21.94,0,0,1-2-6.5,23.33,23.33,0,0,1,16.15,7C92.6,61,92.85,61.3,93.1,61.55Z"/><path class="cls-2" d="M72.35,87.55V88.7a23.54,23.54,0,0,0-9.6-11.45,21.46,21.46,0,0,1,3.15-6.1,23.3,23.3,0,0,1,6.5,16.4Z"/><path class="cls-2" d="M88.3,73H87.2A23.18,23.18,0,0,1,71,66.2a22.5,22.5,0,0,1,6.1-3.05A23.34,23.34,0,0,0,88.3,73Z"/><path class="cls-2" d="M98.05,70.4A24.89,24.89,0,0,1,93,72.3a23.23,23.23,0,0,1-13.5-9.75,22.93,22.93,0,0,1,16.4,2.9,22.83,22.83,0,0,1,2.15,5Z"/><path class="cls-2" d="M37.5,79.5a23.21,23.21,0,0,1-2.85,16.4h0a23.94,23.94,0,0,1-4.95,2.15A22.29,22.29,0,0,1,27.8,93,23.11,23.11,0,0,1,37.55,79.5Z"/><path class="cls-2" d="M39.7,78.2a21.79,21.79,0,0,1,6.55-2,23.33,23.33,0,0,1-7,16.15c-.25.25-.55.55-.85.8A23.1,23.1,0,0,0,39.7,78.2Z"/><path class="cls-2" d="M60.85,93.3c-.25-.25-.55-.5-.8-.8A23.59,23.59,0,0,1,53.3,76.2a23.66,23.66,0,0,1,6.5,2.15,23.37,23.37,0,0,0,1,14.9Z"/><path class="cls-2" d="M71.55,93.4a24.15,24.15,0,0,1-2,5,25.33,25.33,0,0,1-4.9-2.2h0a23.15,23.15,0,0,1-2.65-16.5A23.1,23.1,0,0,1,71.6,93.4Z"/><path class="cls-2" d="M33.8,70.9a21.42,21.42,0,0,1,3.05,6.15,23.34,23.34,0,0,0-9.8,11.25V87.2A23.15,23.15,0,0,1,33.8,71Z"/><path class="cls-2" d="M43.6,65.1a22.65,22.65,0,0,1,2.55,8.7,24.11,24.11,0,0,0-7.15,2,24.21,24.21,0,0,0-3.45-6.55A21.78,21.78,0,0,1,43.6,65.1Z"/><path class="cls-2" d="M54.15,64.7a23.58,23.58,0,0,0-2.55,9c-.6,0-1.2-.1-1.8-.1H48.45a23.73,23.73,0,0,0-2.65-9,19.86,19.86,0,0,1,3.9-.35H50A18.52,18.52,0,0,1,54.15,64.7Z"/><path class="cls-2" d="M64.1,69.55a26.07,26.07,0,0,0-3.6,6.5,24.46,24.46,0,0,0-7.1-2.2,22.4,22.4,0,0,1,2.7-8.65A22.29,22.29,0,0,1,64.1,69.55Z"/><path class="cls-2" d="M72.35,87.55V88.7a23.54,23.54,0,0,0-9.6-11.45,21.46,21.46,0,0,1,3.15-6.1,23.3,23.3,0,0,1,6.5,16.4Z"/><path class="cls-2" d="M6.65,71.7a25.15,25.15,0,0,1-5.1-2,24.77,24.77,0,0,1,2.25-5h0a22.87,22.87,0,0,1,16.6-2.65,23.13,23.13,0,0,1-13.75,9.7Z"/><path class="cls-2" d="M29,65.9a23.13,23.13,0,0,1-16.4,6.55H11.4a23.56,23.56,0,0,0,11.45-9.7A23,23,0,0,1,29,66Z"/><path class="cls-2" d="M23.8,53.3a22.91,22.91,0,0,1-2.15,6.55,23.21,23.21,0,0,0-14.95,1c.25-.25.5-.55.8-.8A23.18,23.18,0,0,1,23.85,53.3Z"/><path class="cls-2" d="M34.85,56.15a22.12,22.12,0,0,1-4.3,8,26.07,26.07,0,0,0-6.5-3.6,25.89,25.89,0,0,0,2.2-7.15,21.66,21.66,0,0,1,8.65,2.75Z"/><path class="cls-2" d="M33.8,70.9a21.42,21.42,0,0,1,3.05,6.15,23.34,23.34,0,0,0-9.8,11.25V87.2A23.15,23.15,0,0,1,33.8,71Z"/><path class="cls-2" d="M40,60.05a20,20,0,0,1,2.6,3.25,25.13,25.13,0,0,0-8.15,4.55c-.4-.45-.8-.9-1.2-1.3a9,9,0,0,0-1-1,24.1,24.1,0,0,0,4.5-8.25A22.27,22.27,0,0,1,39.8,60l.1.1Z"/><path class="cls-2" d="M46.15,73.8a24.11,24.11,0,0,0-7.15,2,24.21,24.21,0,0,0-3.45-6.55,21.78,21.78,0,0,1,8.05-4.2A22.65,22.65,0,0,1,46.15,73.8Z"/><path class="cls-2" d="M37.5,79.5a23.21,23.21,0,0,1-2.85,16.4h0a23.94,23.94,0,0,1-4.95,2.15A22.29,22.29,0,0,1,27.8,93,23.11,23.11,0,0,1,37.55,79.5Z"/><path class="cls-2" d="M39.7,78.2a21.79,21.79,0,0,1,6.55-2,23.33,23.33,0,0,1-7,16.15c-.25.25-.55.55-.85.8A23.1,23.1,0,0,0,39.7,78.2Z"/><circle class="cls-2" cx="50" cy="5.75" r="5.75"/><circle class="cls-2" cx="81.3" cy="18.75" r="5.75"/><circle class="cls-2" cx="94.25" cy="50" r="5.75"/><circle class="cls-2" cx="81.25" cy="81.3" r="5.75"/><circle class="cls-2" cx="49.95" cy="94.25" r="5.75"/><circle class="cls-2" cx="18.65" cy="81.25" r="5.75"/><circle class="cls-2" cx="5.75" cy="49.9" r="5.75"/><circle class="cls-2" cx="18.8" cy="18.65" r="5.75"/></g></g></g></svg>